HIERARCHY
ROOT Hips
{
	OFFSET 0.000000 0.000000 0.000000
	CHANNELS 6 Xposition Yposition Zposition Zrotation Yrotation Xrotation 
	JOINT LowerBack
	{
		OFFSET 0.000000 0.000000 0.000000
		CHANNELS 3 Zrotation Yrotation Xrotation
		JOINT Spine
		{
			OFFSET 0.028270 2.035590 -0.193380
			CHANNELS 3 Zrotation Yrotation Xrotation
			JOINT Spine1
			{
				OFFSET 0.056720 2.048850 -0.042750
				CHANNELS 3 Zrotation Yrotation Xrotation
				JOINT Neck
				{
					OFFSET 0.000000 0.000000 0.000000
					CHANNELS 3 Zrotation Yrotation Xrotation
					JOINT Neck1
					{
						OFFSET -0.054170 1.746240 0.172020
						CHANNELS 3 Zrotation Yrotation Xrotation
						JOINT Head
						{
							OFFSET 0.104070 1.761360 -0.123970
							CHANNELS 3 Zrotation Yrotation Xrotation
							End Site
							{
								OFFSET 0.000000 0.000000 0.000000
							}
						}
					}
				}
				JOINT LeftShoulder
				{
					OFFSET 0.000000 0.000000 0.000000
					CHANNELS 3 Zrotation Yrotation Xrotation
					JOINT LeftArm
					{
						OFFSET 3.362410 1.200890 -0.311210
						CHANNELS 3 Zrotation Yrotation Xrotation
						JOINT LeftForeArm
						{
							OFFSET 4.983000 -0.000000 -0.000000
							CHANNELS 3 Zrotation Yrotation Xrotation
							JOINT LeftHand
							{
								OFFSET 3.483560 -0.000000 -0.000000
								CHANNELS 3 Zrotation Yrotation Xrotation
								JOINT LeftFingerBase
								{
									OFFSET 0.000000 0.000000 0.000000
									CHANNELS 3 Zrotation Yrotation Xrotation
									JOINT LeftHandIndex1
									{
										OFFSET 0.715260 -0.000000 -0.000000
										CHANNELS 3 Zrotation Yrotation Xrotation
										End Site
										{
											OFFSET 0.000000 0.000000 0.000000
										}
									}
								}
								JOINT LThumb
								{
									OFFSET 0.000000 0.000000 0.000000
									CHANNELS 3 Zrotation Yrotation Xrotation
									End Site
									{
										OFFSET 0.000000 0.000000 0.000000
									}
								}
							}
						}
					}
				}
				JOINT RightShoulder
				{
					OFFSET 0.000000 0.000000 0.000000
					CHANNELS 3 Zrotation Yrotation Xrotation
					JOINT RightArm
					{
						OFFSET -3.136600 1.374050 -0.404650
						CHANNELS 3 Zrotation Yrotation Xrotation
						JOINT RightForeArm
						{
							OFFSET -5.241900 -0.000000 -0.000000
							CHANNELS 3 Zrotation Yrotation Xrotation
							JOINT RightHand
							{
								OFFSET -3.444170 -0.000000 -0.000000
								CHANNELS 3 Zrotation Yrotation Xrotation
								JOINT RightFingerBase
								{
									OFFSET 0.000000 0.000000 0.000000
									CHANNELS 3 Zrotation Yrotation Xrotation
									JOINT RightHandIndex1
									{
										OFFSET -0.622530 -0.000000 -0.000000
										CHANNELS 3 Zrotation Yrotation Xrotation
										End Site
										{
											OFFSET 0.000000 0.000000 0.000000
										}
									}
								}
								JOINT RThumb
								{
									OFFSET 0.000000 0.000000 0.000000
									CHANNELS 3 Zrotation Yrotation Xrotation
									End Site
									{
										OFFSET 0.000000 0.000000 0.000000
									}
								}
							}
						}
					}
				}
			}
		}
	}
}
}
MOTION
Frames: 10
Frame Time: 0.008333
-2.360184 16.506553 1.560836 -116.059898 79.800026 -102.513551 0.773999 0.270532 -1.734066 -0.567058 0.154812 -3.375843 -5.597670 0.170609 -0.328596 8.803633 -8.645185 -6.835234 -1.580620 -0.134197 0.242915 0.000000 0.000000 0.000000 1.668153 16.215991 0.223481 -58.988528 31.269521 21.152274 -179.980329 -87.766636 179.986200 7.493890 1.517828 0.096560 -0.157484 0.103672 -0.000000 0.000000 0.000000 0.000000 0.000000 0.000000 0.000000 4.395933 -1.519198 -0.299584 49.896970 33.466931 20.100462 179.673210 84.616400 -179.991126 1.096291 7.475250 0.078953 -0.020445 -0.540179 -0.000000 0.000000 0.000000 0.000000 0.000000 0.000000 0.000000 
-2.196161 16.411662 1.530206 -115.028140 79.897996 -101.626526 0.568989 0.237981 -1.852501 -0.618663 0.130546 -3.384055 -5.646171 0.147216 -0.271978 8.868424 -8.470989 -6.837923 -1.580473 -0.134039 0.241817 0.000000 0.000000 0.000000 1.280474 16.714119 0.284796 -58.653824 30.601494 21.139429 179.983575 -88.672751 179.985454 7.969948 1.786436 0.122215 -0.167966 0.095987 -0.000000 0.000000 0.000000 0.000000 0.000000 0.000000 0.000000 4.423915 -1.366939 -0.412272 49.907434 33.703168 19.499651 179.693647 84.711340 -179.990944 1.253739 7.771393 0.094003 -0.029658 -0.548156 -0.000000 0.000000 0.000000 0.000000 0.000000 0.000000 0.000000 
-2.040616 16.325281 1.496215 -114.200102 80.060924 -100.919482 0.369975 0.236422 -1.919116 -0.667868 0.138854 -3.383520 -5.690405 0.156545 -0.216996 8.844584 -8.256164 -6.871696 -1.586893 -0.133754 0.230481 0.000000 0.000000 0.000000 0.787774 17.256741 0.382925 -58.299198 29.401809 21.185444 179.937259 -89.821273 179.984514 8.465936 2.093017 0.153573 -0.178830 0.088748 -0.000000 0.000000 0.000000 0.000000 0.000000 0.000000 0.000000 4.369140 -1.154171 -0.544660 50.064103 33.706032 18.816031 179.720782 84.875504 -179.991236 1.360281 8.104103 0.106562 -0.038407 -0.556569 -0.000000 0.000000 0.000000 0.000000 0.000000 0.000000 0.000000 
-1.893929 16.249479 1.458343 -113.623091 80.277059 -100.445450 0.179878 0.270957 -1.927513 -0.715028 0.184674 -3.374308 -5.732853 0.203648 -0.168735 8.738386 -8.010251 -6.934514 -1.601215 -0.133474 0.209377 0.000000 0.000000 0.000000 0.203674 17.810079 0.512226 -57.943010 27.692056 21.282991 -0.119468 -88.809127 -0.016601 8.958483 2.412975 0.188530 -0.189545 0.082462 -0.000000 0.000000 0.000000 0.000000 0.000000 0.000000 0.000000 4.246973 -0.889564 -0.688883 50.343508 33.456788 18.046549 179.754158 85.115194 -179.992179 1.385651 8.462507 0.113634 -0.045779 -0.565085 -0.000000 0.000000 0.000000 0.000000 0.000000 0.000000 0.000000 
-1.755970 16.185789 1.416225 -113.355077 80.528313 -100.263092 0.009059 0.344278 -1.881288 -0.758871 0.269693 -3.358583 -5.775807 0.290223 -0.133394 8.557280 -7.738547 -7.019427 -1.624623 -0.133403 0.180481 0.000000 0.000000 0.000000 -0.460266 18.336176 0.663884 -57.598383 25.529726 21.421536 -0.186259 -87.259570 -0.017872 9.430071 2.719964 0.224685 -0.199826 0.077591 -0.000000 0.000000 0.000000 0.000000 0.000000 0.000000 0.000000 4.073523 -0.579434 -0.836108 50.718277 32.941611 17.194095 179.793028 85.442329 -179.993905 1.305923 8.834190 0.112226 -0.051019 -0.573210 -0.000000 0.000000 0.000000 0.000000 0.000000 0.000000 0.000000 
-1.626040 16.135070 1.369416 -113.452381 80.789789 -100.428632 -0.131191 0.456473 -1.790274 -0.797754 0.392759 -3.339057 -5.821068 0.415062 -0.115178 8.311097 -7.446195 -7.116938 -1.657715 -0.133749 0.146548 0.000000 0.000000 0.000000 -1.184583 18.802533 0.827273 -57.279875 22.991988 21.593671 -0.262562 -85.579465 -0.019287 9.870393 2.988889 0.259234 -0.209578 0.074552 0.000000 0.000000 0.000000 0.000000 0.000000 0.000000 0.000000 3.866773 -0.232385 -0.977492 51.157402 32.160390 16.268786 179.836591 85.876704 -179.996490 1.104450 9.208136 0.099738 -0.053589 -0.580358 -0.000000 0.000000 0.000000 0.000000 0.000000 0.000000 0.000000 
-1.503070 16.097522 1.317546 -113.971491 81.031835 -100.999965 -0.224950 0.604490 -1.668131 -0.828758 0.549191 -3.318811 -5.869372 0.573357 -0.117586 8.010198 -7.138077 -7.214475 -1.700643 -0.134743 0.111341 0.000000 0.000000 0.000000 -1.950237 19.176283 0.990564 -57.000511 20.181324 21.789257 -0.346975 -83.832414 -0.020831 10.275445 3.199314 0.289283 -0.218799 0.073621 0.000000 0.000000 0.000000 0.000000 0.000000 0.000000 0.000000 3.644481 0.141467 -1.103823 51.628031 31.127138 15.288144 179.883594 86.443695 -179.999931 0.774440 9.572329 0.074169 -0.053189 -0.585841 -0.000000 0.000000 0.000000 0.000000 0.000000 0.000000 0.000000 
-1.385512 16.072778 1.260350 -114.963426 81.221161 -102.029766 -0.255687 0.782000 -1.530585 -0.848548 0.730982 -3.300465 -5.920369 0.756950 -0.141240 7.666926 -6.822296 -7.299459 -1.753118 -0.136591 0.078756 0.000000 0.000000 0.000000 -2.735057 19.429070 1.142305 -56.773304 17.212625 21.997315 -0.436927 -82.089369 -0.022489 10.646692 3.337954 0.312829 -0.227521 0.074925 0.000000 0.000000 0.000000 0.000000 0.000000 0.000000 0.000000 3.426587 0.527239 -1.205723 52.096124 29.874591 14.278427 179.932334 87.173450 179.995874 0.318890 9.912635 0.034418 -0.049723 -0.588895 -0.000000 0.000000 0.000000 0.000000 0.000000 0.000000 0.000000 
-1.271689 16.059975 1.197701 -116.465618 81.324542 -103.558139 -0.209611 0.979658 -1.394526 -0.854098 0.927310 -3.286187 -5.972830 0.954851 -0.184254 7.295071 -6.506095 -7.359970 -1.814256 -0.139447 0.052617 0.000000 0.000000 0.000000 -3.512815 19.539758 1.273348 -56.612163 14.198858 22.208869 -0.528538 -80.421072 -0.024255 10.988612 3.400610 0.328774 -0.235764 0.078471 0.000000 0.000000 0.000000 0.000000 0.000000 0.000000 0.000000 3.231076 0.910369 -1.275612 52.534497 28.442459 13.269145 179.980758 88.093941 179.991154 -0.246114 10.210252 -0.018519 -0.043381 -0.588734 -0.000000 0.000000 0.000000 0.000000 0.000000 0.000000 0.000000 
-1.159760 16.058021 1.129635 -118.494211 81.311617 -105.603427 -0.079984 1.185097 -1.276185 -0.843597 1.124863 -3.276962 -6.024927 1.153667 -0.240464 6.911758 -6.207142 -7.388722 -1.882903 -0.143367 0.035523 0.000000 0.000000 0.000000 -4.256641 19.493797 1.376110 -56.529002 11.245125 22.414807 -0.616551 -78.897023 -0.026130 11.305937 3.391775 0.336819 -0.243490 0.084158 0.000000 0.000000 0.000000 0.000000 0.000000 0.000000 0.000000 3.080804 1.264796 -1.305867 52.916429 26.894059 12.300543 -179.974057 89.233379 179.985299 -0.896261 10.441452 -0.082548 -0.034421 -0.584599 -0.000000 0.000000 0.000000 0.000000 0.000000 0.000000 0.000000 
